{"title":"2013 Miss America Swimsuit Competition","uid":8137107,"size":310961207,"categoryP":"video","categoryS":"other","magnet":"?xt=urn:btih:36d2d251da186672aa58a692c524361b118be542&amp;dn=2013+Miss+America+Swimsuit+Competition&amp;tr=udp%3A%2F%2Ftracker.openbittorrent.com%3A80&amp;tr=udp%3A%2F%2Fopen.demonii.com%3A1337&amp;tr=udp%3A%2F%2Ftracker.coppersurfer.tk%3A6969&amp;tr=udp%3A%2F%2Fexodus.desync.com%3A6969","seeders":0,"leechers":1,"uploader":"FatFreddy2013","files":-1,"time":1360734475,"description":"2013 Miss America Swimsuit Competition\n\nNote: This is only the Swimsuit Competition of the 2013 Miss America.\nOriginal Source : miss.america.2013.720p.hdtv.x264-2hd\n\nScreens:\n &lt;a href=&quot;\nhttp://bayimg.com/AajOMAaeI&quot; rel=&quot;nofollow&quot; target=&quot;_NEW&quot;&gt;\nhttp://bayimg.com/AajOMAaeI&lt;/a&gt;\n\nMedia Info:\n\n2013 Miss America Swimsuit Competition.mkv\n\nFormat                                   : Matroska\nFormat version                           : Version 2\nFile size                                : 297 MiB\nDuration                                 : 5mn 26s\nOverall bit rate                         : 7 610 Kbps\nWriting application                      : Lavf52.64.2\nWriting library                          : Lavf52.64.2\n\nVideo\nID                                       : 1\nFormat                                   : AVC\nFormat/Info                              : Advanced Video Codec\nFormat profile                           : &lt;a class=&quot;__cf_email__&quot; href=&quot;/cdn-cgi/l/email-protection&quot; data-cfemail=&quot;fcb4959b94bcb0cfd2cd&quot;&gt;[email&amp;#160;protected]&lt;/a&gt;&lt;script cf-hash='f9e31' type=&quot;text/javascript&quot;&gt;\n/* &lt;![CDATA[ */!function(){try{var t=&quot;currentScript&quot;in document?document.currentScript:function(){for(var t=document.getElementsByTagName(&quot;script&quot;),e=t.length;e--;)if(t[e].getAttribute(&quot;cf-hash&quot;))return t[e]}();if(t&amp;&amp;t.previousSibling){var e,r,n,i,c=t.previousSibling,a=c.getAttribute(&quot;data-cfemail&quot;);if(a){for(e=&quot;&quot;,r=parseInt(a.substr(0,2),16),n=2;a.length-n;n+=2)i=parseInt(a.substr(n,2),16)^r,e+=String.fromCharCode(i);e=document.createTextNode(e),c.parentNode.replaceChild(e,c)}}}catch(u){}}();/* ]]&gt; */&lt;/script&gt;\nFormat settings, CABAC                   : Yes\nFormat settings, ReFrames                : 5 frames\nCodec ID                                 : V_MPEG4/ISO/AVC\nDuration                                 : 5mn 26s\nBit rate                                 : 7 075 Kbps\nWidth                                    : 1 280 pixels\nHeight                                   : 720 pixels\nDisplay aspect ratio                     : 16:9\nFrame rate                               : 29.970 fps\nColor space                              : YUV\nChroma subsampling                       : 4:2:0\nBit depth                                : 8 bits\nScan type                                : Progressive\nBits/(Pixel*Frame)                       : 0.256\nStream size                              : 276 MiB (93%)\nDefault                                  : Yes\nForced                                   : No\nMatrix coefficients                      : BT.709-5, BT.1361, IEC 61966-2-4 709, SMPTE RP177\n\nAudio\nID                                       : 2\nFormat                                   : AC-3\nFormat/Info                              : Audio Coding 3\nMode extension                           : CM (complete main)\nFormat settings, Endianness              : Big\nCodec ID                                 : A_AC3\nDuration                                 : 5mn 26s\nBit rate mode                            : Constant\nBit rate                                 : 384 Kbps\nChannel(s)                               : 6 channels\nChannel positions                        : Front: L C R, Side: L R, LFE\nSampling rate                            : 48.0 KHz\nBit depth                                : 16 bits\nCompression mode                         : Lossy\nStream size                              : 15.0 MiB (5%)\nDefault                                  : Yes\nForced                                   : No\n\n","torrent":{"xt":"urn:btih:36d2d251da186672aa58a692c524361b118be542","amp;dn":"2013+Miss+America+Swimsuit+Competition","amp;tr":["udp%3A%2F%2Ftracker.openbittorrent.com%3A80","udp%3A%2F%2Fopen.demonii.com%3A1337","udp%3A%2F%2Ftracker.coppersurfer.tk%3A6969","udp%3A%2F%2Fexodus.desync.com%3A6969"],"infoHash":"36d2d251da186672aa58a692c524361b118be542","infoHashBuffer":{"type":"Buffer","data":[54,210,210,81,218,24,102,114,170,88,166,146,197,36,54,27,17,139,229,66]},"announce":[],"urlList":[]}}